<mxfile host="app.diagrams.net" agent="Mozilla/5.0 (X11; Linux x86_64; rv:136.0) Gecko/20100101 Firefox/136.0" version="26.2.8">
  <diagram name="Seite-1" id="BenwFOyozs_DCg03Mwbg">
    <mxGraphModel dx="946" dy="1076" grid="1" gridSize="10" guides="1" tooltips="1" connect="1" arrows="1" fold="1" page="1" pageScale="1" pageWidth="1169" pageHeight="827" math="0" shadow="0">
      <root>
        <mxCell id="0" />
        <mxCell id="1" parent="0" />
        <mxCell id="h1opr_tVFvxxBnshkj9o-1" value="CTI" style="whiteSpace=wrap;html=1;aspect=fixed;sketch=1;curveFitting=1;jiggle=2;" parent="1" vertex="1">
          <mxGeometry x="40" y="40" width="80" height="80" as="geometry" />
        </mxCell>
        <mxCell id="h1opr_tVFvxxBnshkj9o-2" value="Threat Hunting" style="whiteSpace=wrap;html=1;aspect=fixed;sketch=1;curveFitting=1;jiggle=2;" parent="1" vertex="1">
          <mxGeometry x="40" y="140" width="80" height="80" as="geometry" />
        </mxCell>
        <mxCell id="h1opr_tVFvxxBnshkj9o-3" value="Incident Response" style="whiteSpace=wrap;html=1;aspect=fixed;sketch=1;curveFitting=1;jiggle=2;" parent="1" vertex="1">
          <mxGeometry x="40" y="240" width="80" height="80" as="geometry" />
        </mxCell>
        <mxCell id="h1opr_tVFvxxBnshkj9o-4" value="Vulnerability Management" style="whiteSpace=wrap;html=1;aspect=fixed;sketch=1;curveFitting=1;jiggle=2;" parent="1" vertex="1">
          <mxGeometry x="40" y="342" width="80" height="80" as="geometry" />
        </mxCell>
        <mxCell id="h1opr_tVFvxxBnshkj9o-5" value="&lt;div&gt;Internal&lt;/div&gt;&lt;div&gt;Analytics&lt;/div&gt;" style="whiteSpace=wrap;html=1;aspect=fixed;sketch=1;curveFitting=1;jiggle=2;" parent="1" vertex="1">
          <mxGeometry x="40" y="440" width="80" height="80" as="geometry" />
        </mxCell>
        <mxCell id="h1opr_tVFvxxBnshkj9o-6" value="&lt;div&gt;External&lt;/div&gt;&lt;div&gt;Analytics&lt;/div&gt;" style="whiteSpace=wrap;html=1;aspect=fixed;sketch=1;curveFitting=1;jiggle=2;" parent="1" vertex="1">
          <mxGeometry x="40" y="542" width="80" height="80" as="geometry" />
        </mxCell>
        <mxCell id="h1opr_tVFvxxBnshkj9o-7" value="Detection Development" style="rounded=0;whiteSpace=wrap;html=1;sketch=1;curveFitting=1;jiggle=2;" parent="1" vertex="1">
          <mxGeometry x="200" y="40" width="240" height="580" as="geometry" />
        </mxCell>
        <mxCell id="sVCSLvqvuQ9Z8jNADrWr-18" style="edgeStyle=orthogonalEdgeStyle;rounded=0;orthogonalLoop=1;jettySize=auto;html=1;exitX=0.5;exitY=1;exitDx=0;exitDy=0;entryX=0.5;entryY=0;entryDx=0;entryDy=0;sketch=1;curveFitting=1;jiggle=2;" edge="1" parent="1" source="h1opr_tVFvxxBnshkj9o-8" target="h1opr_tVFvxxBnshkj9o-9">
          <mxGeometry relative="1" as="geometry" />
        </mxCell>
        <mxCell id="h1opr_tVFvxxBnshkj9o-8" value="Repository" style="whiteSpace=wrap;html=1;aspect=fixed;sketch=1;curveFitting=1;jiggle=2;" parent="1" vertex="1">
          <mxGeometry x="520" y="53" width="80" height="80" as="geometry" />
        </mxCell>
        <mxCell id="h1opr_tVFvxxBnshkj9o-9" value="CI/CD" style="whiteSpace=wrap;html=1;aspect=fixed;sketch=1;curveFitting=1;jiggle=2;" parent="1" vertex="1">
          <mxGeometry x="520" y="173" width="80" height="80" as="geometry" />
        </mxCell>
        <mxCell id="h1opr_tVFvxxBnshkj9o-10" value="Validation" style="whiteSpace=wrap;html=1;aspect=fixed;sketch=1;curveFitting=1;jiggle=2;" parent="1" vertex="1">
          <mxGeometry x="520" y="293" width="80" height="80" as="geometry" />
        </mxCell>
        <mxCell id="h1opr_tVFvxxBnshkj9o-11" value="Metrics" style="whiteSpace=wrap;html=1;aspect=fixed;sketch=1;curveFitting=1;jiggle=2;" parent="1" vertex="1">
          <mxGeometry x="520" y="413" width="80" height="80" as="geometry" />
        </mxCell>
        <mxCell id="h1opr_tVFvxxBnshkj9o-12" value="Documentation" style="whiteSpace=wrap;html=1;aspect=fixed;sketch=1;curveFitting=1;jiggle=2;" parent="1" vertex="1">
          <mxGeometry x="520" y="533" width="80" height="80" as="geometry" />
        </mxCell>
        <mxCell id="h1opr_tVFvxxBnshkj9o-13" value="XDR, SOAR" style="rounded=0;whiteSpace=wrap;html=1;sketch=1;curveFitting=1;jiggle=2;" parent="1" vertex="1">
          <mxGeometry x="680" y="40" width="240" height="580" as="geometry" />
        </mxCell>
        <mxCell id="h1opr_tVFvxxBnshkj9o-14" value="Purple Teaming, Adversary Emulation" style="rounded=0;whiteSpace=wrap;html=1;sketch=1;curveFitting=1;jiggle=2;" parent="1" vertex="1">
          <mxGeometry x="200" y="710" width="720" height="90" as="geometry" />
        </mxCell>
        <mxCell id="sVCSLvqvuQ9Z8jNADrWr-1" value="" style="endArrow=classic;html=1;rounded=0;entryX=0;entryY=0.067;entryDx=0;entryDy=0;entryPerimeter=0;sketch=1;curveFitting=1;jiggle=2;" edge="1" parent="1" target="h1opr_tVFvxxBnshkj9o-7">
          <mxGeometry width="50" height="50" relative="1" as="geometry">
            <mxPoint x="120" y="80" as="sourcePoint" />
            <mxPoint x="170" y="30" as="targetPoint" />
          </mxGeometry>
        </mxCell>
        <mxCell id="sVCSLvqvuQ9Z8jNADrWr-2" value="" style="endArrow=classic;html=1;rounded=0;entryX=0;entryY=0.067;entryDx=0;entryDy=0;entryPerimeter=0;sketch=1;curveFitting=1;jiggle=2;" edge="1" parent="1">
          <mxGeometry width="50" height="50" relative="1" as="geometry">
            <mxPoint x="120" y="174" as="sourcePoint" />
            <mxPoint x="200" y="173" as="targetPoint" />
          </mxGeometry>
        </mxCell>
        <mxCell id="sVCSLvqvuQ9Z8jNADrWr-3" value="" style="endArrow=classic;html=1;rounded=0;entryX=0;entryY=0.067;entryDx=0;entryDy=0;entryPerimeter=0;sketch=1;curveFitting=1;jiggle=2;" edge="1" parent="1">
          <mxGeometry width="50" height="50" relative="1" as="geometry">
            <mxPoint x="120" y="280.5" as="sourcePoint" />
            <mxPoint x="200" y="279.5" as="targetPoint" />
          </mxGeometry>
        </mxCell>
        <mxCell id="sVCSLvqvuQ9Z8jNADrWr-4" value="" style="endArrow=classic;html=1;rounded=0;entryX=0;entryY=0.067;entryDx=0;entryDy=0;entryPerimeter=0;sketch=1;curveFitting=1;jiggle=2;" edge="1" parent="1">
          <mxGeometry width="50" height="50" relative="1" as="geometry">
            <mxPoint x="120" y="382.5" as="sourcePoint" />
            <mxPoint x="200" y="381.5" as="targetPoint" />
          </mxGeometry>
        </mxCell>
        <mxCell id="sVCSLvqvuQ9Z8jNADrWr-5" value="" style="endArrow=classic;html=1;rounded=0;entryX=0;entryY=0.067;entryDx=0;entryDy=0;entryPerimeter=0;sketch=1;curveFitting=1;jiggle=2;" edge="1" parent="1">
          <mxGeometry width="50" height="50" relative="1" as="geometry">
            <mxPoint x="120" y="480.5" as="sourcePoint" />
            <mxPoint x="200" y="479.5" as="targetPoint" />
          </mxGeometry>
        </mxCell>
        <mxCell id="sVCSLvqvuQ9Z8jNADrWr-6" value="" style="endArrow=classic;html=1;rounded=0;entryX=0;entryY=0.067;entryDx=0;entryDy=0;entryPerimeter=0;sketch=1;curveFitting=1;jiggle=2;" edge="1" parent="1">
          <mxGeometry width="50" height="50" relative="1" as="geometry">
            <mxPoint x="120" y="582.5" as="sourcePoint" />
            <mxPoint x="200" y="581.5" as="targetPoint" />
          </mxGeometry>
        </mxCell>
        <mxCell id="sVCSLvqvuQ9Z8jNADrWr-7" value="" style="endArrow=classic;html=1;rounded=0;entryX=0;entryY=0.067;entryDx=0;entryDy=0;entryPerimeter=0;sketch=1;curveFitting=1;jiggle=2;" edge="1" parent="1">
          <mxGeometry width="50" height="50" relative="1" as="geometry">
            <mxPoint x="600" y="213.5" as="sourcePoint" />
            <mxPoint x="680" y="212.5" as="targetPoint" />
          </mxGeometry>
        </mxCell>
        <mxCell id="sVCSLvqvuQ9Z8jNADrWr-8" value="" style="endArrow=classic;html=1;rounded=0;entryX=0;entryY=0.067;entryDx=0;entryDy=0;entryPerimeter=0;sketch=1;curveFitting=1;jiggle=2;" edge="1" parent="1">
          <mxGeometry width="50" height="50" relative="1" as="geometry">
            <mxPoint x="440" y="80.5" as="sourcePoint" />
            <mxPoint x="520" y="79.5" as="targetPoint" />
          </mxGeometry>
        </mxCell>
        <mxCell id="sVCSLvqvuQ9Z8jNADrWr-9" value="" style="endArrow=classic;html=1;rounded=0;entryX=0;entryY=0.067;entryDx=0;entryDy=0;entryPerimeter=0;sketch=1;curveFitting=1;jiggle=2;" edge="1" parent="1">
          <mxGeometry width="50" height="50" relative="1" as="geometry">
            <mxPoint x="520" y="110" as="sourcePoint" />
            <mxPoint x="440" y="111" as="targetPoint" />
          </mxGeometry>
        </mxCell>
        <mxCell id="sVCSLvqvuQ9Z8jNADrWr-10" value="" style="endArrow=classic;html=1;rounded=0;entryX=0;entryY=0.067;entryDx=0;entryDy=0;entryPerimeter=0;sketch=1;curveFitting=1;jiggle=2;" edge="1" parent="1">
          <mxGeometry width="50" height="50" relative="1" as="geometry">
            <mxPoint x="520" y="329.5" as="sourcePoint" />
            <mxPoint x="440" y="330.5" as="targetPoint" />
          </mxGeometry>
        </mxCell>
        <mxCell id="sVCSLvqvuQ9Z8jNADrWr-11" value="" style="endArrow=classic;html=1;rounded=0;entryX=0;entryY=0.067;entryDx=0;entryDy=0;entryPerimeter=0;sketch=1;curveFitting=1;jiggle=2;" edge="1" parent="1">
          <mxGeometry width="50" height="50" relative="1" as="geometry">
            <mxPoint x="520" y="452.5" as="sourcePoint" />
            <mxPoint x="440" y="453.5" as="targetPoint" />
          </mxGeometry>
        </mxCell>
        <mxCell id="sVCSLvqvuQ9Z8jNADrWr-12" value="" style="endArrow=classic;html=1;rounded=0;entryX=0;entryY=0.067;entryDx=0;entryDy=0;entryPerimeter=0;sketch=1;curveFitting=1;jiggle=2;" edge="1" parent="1">
          <mxGeometry width="50" height="50" relative="1" as="geometry">
            <mxPoint x="440" y="573.5" as="sourcePoint" />
            <mxPoint x="520" y="572.5" as="targetPoint" />
          </mxGeometry>
        </mxCell>
        <mxCell id="sVCSLvqvuQ9Z8jNADrWr-13" value="" style="endArrow=classic;html=1;rounded=0;entryX=0;entryY=0.067;entryDx=0;entryDy=0;entryPerimeter=0;sketch=1;curveFitting=1;jiggle=2;" edge="1" parent="1">
          <mxGeometry width="50" height="50" relative="1" as="geometry">
            <mxPoint x="680" y="572.5" as="sourcePoint" />
            <mxPoint x="600" y="573.5" as="targetPoint" />
          </mxGeometry>
        </mxCell>
        <mxCell id="sVCSLvqvuQ9Z8jNADrWr-14" value="" style="endArrow=classic;html=1;rounded=0;entryX=0;entryY=0.067;entryDx=0;entryDy=0;entryPerimeter=0;sketch=1;curveFitting=1;jiggle=2;" edge="1" parent="1">
          <mxGeometry width="50" height="50" relative="1" as="geometry">
            <mxPoint x="680" y="452.5" as="sourcePoint" />
            <mxPoint x="600" y="453.5" as="targetPoint" />
          </mxGeometry>
        </mxCell>
        <mxCell id="sVCSLvqvuQ9Z8jNADrWr-15" value="" style="endArrow=classic;html=1;rounded=0;entryX=0;entryY=0.067;entryDx=0;entryDy=0;entryPerimeter=0;sketch=1;curveFitting=1;jiggle=2;" edge="1" parent="1">
          <mxGeometry width="50" height="50" relative="1" as="geometry">
            <mxPoint x="680" y="350" as="sourcePoint" />
            <mxPoint x="600" y="351" as="targetPoint" />
          </mxGeometry>
        </mxCell>
        <mxCell id="sVCSLvqvuQ9Z8jNADrWr-16" value="" style="endArrow=classic;html=1;rounded=0;entryX=0;entryY=0.067;entryDx=0;entryDy=0;entryPerimeter=0;sketch=1;curveFitting=1;jiggle=2;" edge="1" parent="1">
          <mxGeometry width="50" height="50" relative="1" as="geometry">
            <mxPoint x="600" y="321" as="sourcePoint" />
            <mxPoint x="680" y="320" as="targetPoint" />
          </mxGeometry>
        </mxCell>
        <mxCell id="sVCSLvqvuQ9Z8jNADrWr-19" style="edgeStyle=orthogonalEdgeStyle;rounded=0;orthogonalLoop=1;jettySize=auto;html=1;exitX=0.5;exitY=1;exitDx=0;exitDy=0;entryX=0.5;entryY=0;entryDx=0;entryDy=0;sketch=1;curveFitting=1;jiggle=2;" edge="1" parent="1">
          <mxGeometry relative="1" as="geometry">
            <mxPoint x="559.5" y="253" as="sourcePoint" />
            <mxPoint x="559.5" y="293" as="targetPoint" />
          </mxGeometry>
        </mxCell>
        <mxCell id="sVCSLvqvuQ9Z8jNADrWr-20" style="edgeStyle=orthogonalEdgeStyle;rounded=0;orthogonalLoop=1;jettySize=auto;html=1;exitX=0.5;exitY=1;exitDx=0;exitDy=0;entryX=0.5;entryY=0;entryDx=0;entryDy=0;sketch=1;curveFitting=1;jiggle=2;" edge="1" parent="1">
          <mxGeometry relative="1" as="geometry">
            <mxPoint x="559.5" y="373" as="sourcePoint" />
            <mxPoint x="559.5" y="413" as="targetPoint" />
          </mxGeometry>
        </mxCell>
        <mxCell id="sVCSLvqvuQ9Z8jNADrWr-21" style="edgeStyle=orthogonalEdgeStyle;rounded=0;orthogonalLoop=1;jettySize=auto;html=1;exitX=0.5;exitY=1;exitDx=0;exitDy=0;entryX=0.5;entryY=0;entryDx=0;entryDy=0;sketch=1;curveFitting=1;jiggle=2;" edge="1" parent="1">
          <mxGeometry relative="1" as="geometry">
            <mxPoint x="559.5" y="493" as="sourcePoint" />
            <mxPoint x="559.5" y="533" as="targetPoint" />
          </mxGeometry>
        </mxCell>
        <mxCell id="sVCSLvqvuQ9Z8jNADrWr-22" value="" style="endArrow=classic;html=1;rounded=0;sketch=1;curveFitting=1;jiggle=2;" edge="1" parent="1">
          <mxGeometry width="50" height="50" relative="1" as="geometry">
            <mxPoint x="280" y="622" as="sourcePoint" />
            <mxPoint x="280" y="709" as="targetPoint" />
          </mxGeometry>
        </mxCell>
        <mxCell id="sVCSLvqvuQ9Z8jNADrWr-23" value="" style="endArrow=classic;html=1;rounded=0;sketch=1;curveFitting=1;jiggle=2;" edge="1" parent="1">
          <mxGeometry width="50" height="50" relative="1" as="geometry">
            <mxPoint x="360" y="709" as="sourcePoint" />
            <mxPoint x="360" y="622" as="targetPoint" />
          </mxGeometry>
        </mxCell>
        <mxCell id="sVCSLvqvuQ9Z8jNADrWr-24" value="" style="endArrow=classic;html=1;rounded=0;sketch=1;curveFitting=1;jiggle=2;" edge="1" parent="1">
          <mxGeometry width="50" height="50" relative="1" as="geometry">
            <mxPoint x="760" y="622" as="sourcePoint" />
            <mxPoint x="760" y="709" as="targetPoint" />
          </mxGeometry>
        </mxCell>
        <mxCell id="sVCSLvqvuQ9Z8jNADrWr-25" value="" style="endArrow=classic;html=1;rounded=0;sketch=1;curveFitting=1;jiggle=2;" edge="1" parent="1">
          <mxGeometry width="50" height="50" relative="1" as="geometry">
            <mxPoint x="840" y="707" as="sourcePoint" />
            <mxPoint x="840" y="620" as="targetPoint" />
          </mxGeometry>
        </mxCell>
      </root>
    </mxGraphModel>
  </diagram>
</mxfile>
